<svg xmlns="http://www.w3.org/2000/svg" viewBox="0 0 716 116" width="716" height="116"><path d="M652.7 62.97a40.11 40.11 0 0 0 6.88-22.51c0-5.52-1.13-10.85-3.17-15.67a40.381 40.381 0 0 0-14.57-17.7A40.11 40.11 0 0 0 619.33.21h-57.47v114.25h28V80.71h22.21l19.62 35.09h30.23l-22.61-40.43c5.36-3.07 9.94-7.31 13.38-12.4ZM589.86 28.2h29.47c1.73 0 3.31.34 4.76.96 2.18.92 4.08 2.49 5.4 4.45a12.07 12.07 0 0 1 2.08 6.84c0 1.73-.34 3.31-.96 4.76a12.347 12.347 0 0 1-7.64 6.94c-1.14.35-2.35.55-3.65.55h-29.47V28.2ZM255.24 1.39h-28V114.8h86.94v-28h-58.94V1.39zM525.7 11.23a56.52 56.52 0 0 0-31.67-9.68h-44.88V114.8h44.88c7.78 0 15.26-1.58 22.04-4.46a56.763 56.763 0 0 0 24.9-20.5 56.52 56.52 0 0 0 9.68-31.67c0-7.78-1.58-15.26-4.46-22.05a56.763 56.763 0 0 0-20.5-24.9Zm-5.29 58.08a28.766 28.766 0 0 1-10.39 12.61c-4.59 3.09-10.02 4.87-15.99 4.88h-16.88V29.55h16.88c3.99 0 7.72.8 11.14 2.24 5.12 2.16 9.52 5.81 12.61 10.39 3.09 4.59 4.87 10.02 4.88 15.99 0 3.99-.8 7.72-2.24 11.14ZM402.93 70.81 362.85 1.39H327.44V115.8h28V44.93l41.19 70.87h34.3V1.39h-28v69.42zM40.7 34.85c4.59-3.09 10.02-4.87 15.99-4.88 3.99 0 7.72.8 11.14 2.24 5.12 2.16 9.52 5.81 12.61 10.39a28.06 28.06 0 0 1 2.6 4.83h29.17a56.26 56.26 0 0 0-3.35-10.88 56.763 56.763 0 0 0-20.5-24.9 56.52 56.52 0 0 0-31.67-9.68c-7.78 0-15.26 1.58-22.05 4.46a56.763 56.763 0 0 0-24.9 20.5A56.581 56.581 0 0 0 .07 58.59c0 7.78 1.58 15.26 4.46 22.04a56.763 56.763 0 0 0 20.5 24.9 56.52 56.52 0 0 0 31.67 9.68c7.78 0 15.26-1.58 22.04-4.46a56.763 56.763 0 0 0 24.9-20.5 56.442 56.442 0 0 0 8.57-20.5H83.06c-2.16 5.11-5.81 9.49-10.37 12.58-4.59 3.09-10.02 4.87-15.99 4.88-3.99 0-7.72-.8-11.14-2.24a28.766 28.766 0 0 1-12.61-10.39c-3.09-4.59-4.87-10.02-4.88-15.99 0-3.99.8-7.72 2.24-11.14 2.16-5.12 5.81-9.52 10.39-12.61Z" fill="#fff"/><circle cx="695.43" cy="95.3" r="20.5" transform="rotate(-16.85 695.208 95.31)" fill="#fff"/><path fill="#fff" d="m185.27 1.08-23.3 38.56L138.45.71 105.58.45l42.39 70.16v45.19h28V70.61l41.86-69.28-32.56-.25z"/></svg>